<svg xmlns="http://www.w3.org/2000/svg" viewBox="0 0 256 256" width="256" height="256">
  <circle cx="128" cy="128" r="128" fill="#C8930A"/>
  <path transform="translate(-60.25,-56.50) scale(0.3000)" d="M 947 415 L 941 418 L 935 424 L 934 426 L 933 428 L 932 431 L 932 725 L 931 732 L 930 736 L 929 739 L 925 747 L 922 752 L 913 761 L 909 764 L 901 768 L 898 769 L 895 770 L 889 771 L 622 770 L 622 762 L 624 760 L 625 760 L 628 757 L 635 752 L 649 743 L 660 735 L 671 726 L 678 722 L 693 710 L 704 703 L 715 694 L 725 688 L 732 683 L 746 672 L 763 661 L 770 656 L 784 645 L 794 639 L 799 635 L 812 622 L 816 617 L 819 613 L 822 609 L 824 606 L 828 599 L 832 591 L 835 584 L 838 575 L 839 571 L 840 567 L 841 562 L 842 557 L 842 548 L 843 547 L 843 539 L 842 527 L 841 521 L 840 516 L 839 512 L 838 508 L 835 499 L 833 494 L 826 480 L 823 475 L 821 472 L 819 469 L 816 465 L 811 459 L 800 448 L 793 442 L 789 439 L 786 437 L 781 434 L 776 431 L 768 427 L 761 424 L 758 424 L 755 422 L 748 420 L 744 419 L 739 418 L 732 417 L 643 417 L 636 418 L 631 419 L 626 420 L 622 421 L 613 424 L 606 427 L 594 433 L 589 436 L 586 438 L 582 441 L 572 449 L 564 457 L 560 462 L 555 468 L 549 477 L 546 482 L 540 494 L 538 499 L 534 511 L 533 515 L 532 519 L 531 524 L 530 530 L 530 553 L 531 557 L 532 559 L 534 562 L 537 565 L 541 568 L 543 569 L 547 570 L 555 570 L 559 569 L 561 568 L 563 567 L 566 565 L 569 562 L 571 559 L 573 554 L 573 541 L 574 532 L 575 527 L 576 523 L 577 520 L 578 517 L 580 512 L 584 504 L 590 495 L 594 490 L 601 483 L 606 479 L 613 474 L 617 472 L 625 468 L 634 465 L 638 464 L 643 463 L 651 462 L 724 462 L 731 463 L 736 464 L 740 465 L 743 466 L 746 467 L 758 473 L 761 475 L 764 477 L 768 480 L 781 493 L 785 498 L 787 501 L 793 513 L 796 521 L 797 525 L 798 530 L 799 539 L 799 548 L 798 555 L 797 559 L 796 563 L 795 566 L 793 571 L 789 579 L 786 584 L 783 588 L 780 592 L 777 595 L 770 601 L 766 604 L 753 613 L 750 614 L 746 617 L 739 623 L 719 636 L 687 659 L 669 672 L 662 677 L 658 681 L 651 685 L 640 694 L 633 699 L 626 704 L 606 718 L 596 725 L 566 745 L 546 760 L 536 767 L 533 769 L 530 771 L 497 771 L 493 770 L 490 769 L 487 767 L 484 764 L 482 761 L 481 759 L 480 757 L 480 648 L 479 640 L 478 634 L 477 629 L 474 620 L 471 612 L 465 600 L 462 595 L 460 592 L 457 588 L 454 584 L 437 567 L 432 563 L 429 561 L 426 559 L 419 555 L 415 553 L 409 550 L 397 546 L 392 545 L 387 544 L 378 543 L 270 543 L 257 544 L 252 545 L 247 546 L 243 547 L 236 549 L 228 552 L 216 558 L 206 564 L 202 567 L 197 571 L 182 586 L 173 598 L 171 601 L 167 608 L 161 620 L 159 625 L 157 630 L 154 639 L 153 643 L 152 647 L 151 652 L 150 658 L 149 668 L 149 694 L 150 702 L 152 712 L 153 717 L 155 723 L 158 732 L 160 737 L 163 743 L 168 753 L 171 758 L 176 765 L 179 769 L 188 779 L 189 780 L 198 788 L 202 791 L 214 799 L 228 806 L 233 808 L 242 811 L 246 812 L 250 813 L 255 814 L 261 815 L 385 815 L 389 814 L 391 813 L 393 812 L 400 805 L 401 803 L 402 801 L 403 796 L 403 790 L 402 785 L 401 783 L 400 781 L 394 775 L 391 773 L 388 772 L 385 771 L 269 771 L 261 770 L 257 769 L 253 768 L 250 767 L 245 765 L 241 763 L 235 760 L 232 758 L 229 756 L 225 753 L 212 740 L 206 731 L 202 724 L 199 717 L 197 712 L 195 705 L 194 700 L 193 695 L 192 688 L 192 669 L 193 662 L 194 657 L 196 650 L 199 641 L 202 634 L 205 629 L 207 626 L 209 623 L 212 619 L 216 614 L 222 608 L 227 604 L 236 598 L 242 595 L 254 591 L 259 590 L 265 589 L 380 589 L 385 590 L 389 591 L 392 592 L 397 594 L 407 600 L 420 613 L 424 618 L 426 621 L 428 625 L 431 631 L 432 634 L 433 637 L 434 641 L 435 647 L 435 759 L 436 764 L 437 768 L 438 771 L 439 774 L 441 779 L 442 781 L 443 783 L 449 792 L 460 803 L 463 805 L 466 807 L 472 810 L 477 812 L 480 813 L 484 814 L 488 815 L 896 815 L 902 814 L 906 813 L 918 809 L 930 803 L 935 800 L 942 795 L 949 788 L 957 788 L 964 795 L 969 799 L 972 801 L 975 803 L 989 810 L 992 811 L 995 812 L 999 813 L 1003 814 L 1009 815 L 1090 815 L 1093 814 L 1096 812 L 1099 810 L 1102 807 L 1105 801 L 1106 796 L 1106 789 L 1105 786 L 1104 783 L 1102 780 L 1096 774 L 1094 773 L 1092 772 L 1088 771 L 1017 771 L 1011 770 L 1007 769 L 1003 767 L 997 764 L 994 762 L 984 752 L 982 749 L 978 741 L 977 738 L 976 734 L 975 729 L 976 590 L 1068 590 L 1071 589 L 1077 586 L 1080 584 L 1083 580 L 1084 578 L 1085 576 L 1086 573 L 1086 561 L 1085 558 L 1084 556 L 1082 553 L 1077 548 L 1071 545 L 1067 544 L 975 543 L 975 432 L 974 429 L 971 423 L 966 418 L 964 417 L 962 416 L 959 415 Z" fill="#FFFFFF"/>
</svg>